<?xml version="1.0" encoding="UTF-8" standalone="no"?>
<!DOCTYPE svg PUBLIC "-//W3C//DTD SVG 1.1//EN" "http://www.w3.org/Graphics/SVG/1.1/DTD/svg11.dtd">
<!-- Created with Vectornator (http://vectornator.io/) -->
<svg height="100%" stroke-miterlimit="10" style="fill-rule:nonzero;clip-rule:evenodd;stroke-linecap:round;stroke-linejoin:round;" version="1.1" viewBox="0 0 397.32 559.5" width="100%" xml:space="preserve" xmlns="http://www.w3.org/2000/svg" xmlns:vectornator="http://vectornator.io" xmlns:xlink="http://www.w3.org/1999/xlink">
<defs/>
<clipPath id="ArtboardFrame">
<rect height="559.5" width="397.32" x="0" y="0"/>
</clipPath>
<g clip-path="url(#ArtboardFrame)" id="Untitled" vectornator:layerName="Untitled">
<g opacity="1" vectornator:layerName="Group 1">
<path d="M396.853 109.955L360.742 514.499L198.418 559.5L36.541 514.561L0.466718 109.955L396.853 109.955Z" fill="#e44d26" fill-rule="nonzero" opacity="1" stroke="none" vectornator:layerName="path"/>
<path d="M198.66 525.102L329.826 488.739L360.684 143.037L198.66 143.037L198.66 525.102Z" fill="#f16529" fill-rule="nonzero" opacity="1" stroke="none" vectornator:layerName="path"/>
<path d="M128.46 242.285L198.66 242.285L198.66 192.662L74.2281 192.662L75.4152 205.975L87.6124 342.723L198.66 342.723L198.66 293.1L132.995 293.1C132.995 293.1 128.46 242.285 128.46 242.285ZM139.644 367.536L89.8297 367.536L96.7813 445.452L198.432 473.669L198.66 473.607L198.66 421.977L198.442 422.035L143.177 407.112C143.177 407.112 139.644 367.536 139.644 367.536Z" fill="#ebebeb" fill-rule="nonzero" opacity="1" stroke="none" vectornator:layerName="path"/>
<path d="M37.3458-5.68434e-14L62.5638-5.68434e-14L62.5638 24.915L85.6329 24.915L85.6329-5.68434e-14L110.852-5.68434e-14L110.852 75.4488L85.6344 75.4488L85.6344 50.1842L62.5654 50.1842L62.5654 75.4488L37.3474 75.4488L37.3474-5.68434e-14L37.3458-5.68434e-14ZM144.013 25.0206L121.816 25.0206L121.816-5.68434e-14L191.447-5.68434e-14L191.447 25.0206L169.236 25.0206L169.236 75.4488L144.018 75.4488L144.018 25.0206L144.016 25.0206L144.013 25.0206ZM202.498-5.68434e-14L228.793-5.68434e-14L244.968 26.5107L261.127-5.68434e-14L287.433-5.68434e-14L287.433 75.4488L262.317 75.4488L262.317 38.0522L244.968 64.8784L244.532 64.8784L227.172 38.0522L227.172 75.4488L202.498 75.4488L202.498-5.68434e-14ZM299.982-5.68434e-14L325.208-5.68434e-14L325.208 50.5105L360.672 50.5105L360.672 75.4488L299.981 75.4488L299.981-5.68434e-14L299.982-5.68434e-14Z" fill="#000000" fill-rule="nonzero" opacity="1" stroke="none" vectornator:layerName="path"/>
<path d="M198.489 342.723L259.595 342.723L253.833 407.081L198.488 422.019L198.488 473.646L300.219 445.452L300.964 437.068L312.627 306.425L313.838 293.1L198.489 293.1L198.489 342.723ZM198.489 242.164L198.489 242.285L318.353 242.285L319.347 231.132L321.61 205.975L322.795 192.662L198.489 192.662L198.489 242.165L198.489 242.164Z" fill="#ffffff" fill-rule="nonzero" opacity="1" stroke="none" vectornator:layerName="path"/>
</g>
</g>
</svg>
